<svg width="28" height="28" viewBox="0 0 28 28" fill="none" xmlns="http://www.w3.org/2000/svg">
<path fill-rule="evenodd" clip-rule="evenodd" d="M3.93389 2.1665C3.61997 2.1665 3.32705 2.32422 3.15424 2.5863C2.98143 2.84837 2.95185 3.17973 3.07551 3.46827L7.84359 14.5938L5.86893 17.2267L5.26139 17.1508C4.12502 17.0078 3.11678 17.8951 3.11678 19.0456V21.9983C3.11678 24.0458 4.77918 25.7082 6.82666 25.7082H23.4094C25.141 25.7082 26.5419 24.3073 26.5419 22.5757C26.5419 20.9962 25.362 19.6647 23.7955 19.4662L11.2945 17.9045L7.91843 10.0269H15.3738C15.8896 10.0269 16.3077 9.60876 16.3077 9.09298C16.3077 8.57721 15.8896 8.15909 15.3738 8.15909H7.11795L5.35018 4.03429H7.43676C7.95254 4.03429 8.37065 3.61617 8.37065 3.10039C8.37065 2.58462 7.95254 2.1665 7.43676 2.1665H3.93389ZM8.00365 17.4933L8.69258 16.5748L9.14749 17.6362L8.00365 17.4933Z" fill="#E7490F"/>
</svg>
