<svg width="72" height="11" viewBox="0 0 72 11" fill="none" xmlns="http://www.w3.org/2000/svg">
<path fill-rule="evenodd" clip-rule="evenodd" d="M71.1603 3.41858L68.3458 3.63407C68.2943 3.40561 68.1653 3.2016 67.9804 3.05616C67.6656 2.87779 67.3054 2.79385 66.9434 2.81454C66.0481 2.81454 65.6004 3.05181 65.6004 3.52632C65.5961 3.61328 65.6141 3.6999 65.6526 3.77811C65.6912 3.85633 65.7491 3.92359 65.8209 3.97363C66.0898 4.12338 66.3827 4.2261 66.6867 4.27727L68.991 4.79968C69.6606 4.90756 70.2846 5.20456 70.7884 5.65512C71.176 6.0837 71.3761 6.64743 71.3447 7.22233C71.3474 7.72684 71.2169 8.22326 70.9661 8.66221C70.7303 9.08594 70.3804 9.43636 69.9555 9.67437C68.9494 10.1722 67.8333 10.4113 66.7097 10.3698C65.0111 10.3698 63.837 10.0128 63.1874 9.29888C62.7527 8.78572 62.4812 8.15625 62.4072 7.49006L65.3107 7.38232C65.4489 8.07124 66.0151 8.41407 67.0159 8.41407C67.3982 8.43423 67.7785 8.34589 68.1121 8.15939C68.2363 8.09022 68.3395 7.98913 68.4107 7.86675C68.4819 7.74438 68.5187 7.60524 68.517 7.46394C68.517 7.07214 68.1878 6.81094 67.5656 6.68686L65.3107 6.24609C63.6186 5.91306 62.7726 5.08265 62.7726 3.75487C62.7578 3.3357 62.8514 2.91975 63.0444 2.54657C63.2374 2.17338 63.5235 1.85538 63.8754 1.62281C64.6128 1.11347 65.6399 0.862061 66.9566 0.862061C68.4665 0.862061 69.5638 1.13415 70.2485 1.67832C70.7645 2.1223 71.0906 2.74459 71.1603 3.41858Z" fill="white"/>
<path fill-rule="evenodd" clip-rule="evenodd" d="M59.9445 3.41857L57.13 3.63407C57.0774 3.40525 56.9472 3.20126 56.7613 3.05616C56.4476 2.87805 56.0885 2.79411 55.7276 2.81454C54.8322 2.81454 54.3845 3.0518 54.3845 3.52632C54.3796 3.61337 54.3973 3.7002 54.4359 3.77852C54.4746 3.85684 54.5328 3.92402 54.6051 3.97363C54.8737 4.12398 55.1667 4.22673 55.4708 4.27727L57.7752 4.79968C58.4447 4.90755 59.0688 5.20455 59.5725 5.65511C59.9589 6.08443 60.1588 6.64763 60.1289 7.22232C60.1316 7.72683 60.001 8.22325 59.7503 8.6622C59.5147 9.08721 59.1634 9.43795 58.7364 9.67435C57.7316 10.1725 56.6165 10.4117 55.4939 10.3698C53.7953 10.3698 52.6212 10.0128 51.9716 9.29887C51.5369 8.78571 51.2654 8.15625 51.1914 7.49005L54.0915 7.38231C54.2298 8.07232 54.7993 8.41623 55.8 8.41406C56.1824 8.43422 56.5627 8.34588 56.8962 8.15938C57.0201 8.09005 57.1228 7.98884 57.1935 7.86644C57.2641 7.74403 57.3002 7.60497 57.2978 7.46393C57.2978 7.07213 56.9687 6.81093 56.3498 6.68686L54.0915 6.24608C52.4039 5.91305 51.559 5.08264 51.5568 3.75487C51.542 3.3357 51.6356 2.91975 51.8286 2.54656C52.0216 2.17338 52.3077 1.85538 52.6596 1.62281C53.397 1.11347 54.4207 0.862061 55.7375 0.862061C57.2518 0.862061 58.349 1.13415 59.0294 1.67832C59.5455 2.12258 59.8726 2.7445 59.9445 3.41857Z" fill="white"/>
<path fill-rule="evenodd" clip-rule="evenodd" d="M48.5678 1.14282V3.15081H42.9485V4.59722H48.13V6.60521H42.9485V8.06794H48.7291V10.0759H39.999V1.14282H48.5678Z" fill="white"/>
<path fill-rule="evenodd" clip-rule="evenodd" d="M36.8157 1.14282V10.0759H34.4291L30.5513 5.27961V10.0759H27.7334V1.14282H30.1365L34.0011 5.962V1.14282H36.8157Z" fill="white"/>
<path fill-rule="evenodd" clip-rule="evenodd" d="M25.4556 1.14282V3.15081H22.5916V10.0759H19.6388V3.15081H16.7617V1.14282H25.4556Z" fill="white"/>
<path d="M14.4212 1.14282H11.4717V10.0759H14.4212V1.14282Z" fill="white"/>
<path fill-rule="evenodd" clip-rule="evenodd" d="M8.78838 1.14282V3.15081H3.76496V4.86495H8.38677V6.87294H3.76496V10.0759H0.81543V1.14282H8.78838Z" fill="white"/>
</svg>
