<svg width="28" height="28" viewBox="0 0 28 28" fill="none" xmlns="http://www.w3.org/2000/svg">
<path d="M13.9994 1.74951C11.4476 1.75254 9.00121 2.76757 7.19683 4.57195C5.39245 6.37633 4.37742 8.82273 4.37439 11.3745C4.37439 19.6101 13.1244 25.8308 13.4969 26.0914C13.6443 26.1943 13.8197 26.2495 13.9994 26.2495C14.1791 26.2495 14.3545 26.1943 14.5018 26.0914C14.8744 25.8308 23.6244 19.6101 23.6244 11.3745C23.6214 8.82273 22.6063 6.37633 20.8019 4.57195C18.9976 2.76757 16.5512 1.75254 13.9994 1.74951ZM14 7.87483C14.6923 7.87483 15.369 8.0801 15.9445 8.46469C16.5201 8.84927 16.9687 9.3959 17.2336 10.0354C17.4985 10.675 17.5678 11.3787 17.4328 12.0576C17.2977 12.7366 16.9644 13.3602 16.4749 13.8497C15.9854 14.3392 15.3618 14.6725 14.6828 14.8076C14.0039 14.9426 13.3002 14.8733 12.6606 14.6084C12.0211 14.3435 11.4745 13.8949 11.0899 13.3193C10.7053 12.7438 10.5 12.0671 10.5 11.3748C10.5 10.9152 10.5905 10.4601 10.7664 10.0354C10.9423 9.61078 11.2001 9.22493 11.5251 8.89993C11.8501 8.57492 12.236 8.31711 12.6606 8.14122C13.0853 7.96534 13.5404 7.87482 14 7.87483Z" fill="#E7490F"/>
</svg>
