<svg width="20" height="20" viewBox="0 0 20 20" fill="none" xmlns="http://www.w3.org/2000/svg">
<path d="M14.6625 17.505H14.6392C11.4378 17.4262 8.38275 16.1479 6.07919 13.9233C3.85379 11.6219 2.57477 8.56797 2.49576 5.3675C2.49104 4.91916 2.66707 4.4878 2.98419 4.17083L5.24586 1.91083C5.57127 1.58551 6.09877 1.58551 6.42419 1.91083L9.75752 5.24417C10.0828 5.56958 10.0828 6.09708 9.75752 6.4225L8.42752 7.75C8.6742 8.6716 9.12858 9.5245 9.75586 10.2433C10.4734 10.8708 11.3252 11.3255 12.2459 11.5725L13.5792 10.2442C13.9046 9.91885 14.4321 9.91885 14.7575 10.2442L18.0909 13.5775C18.4162 13.9029 18.4162 14.4304 18.0909 14.7558L15.8292 17.0167C15.5208 17.3283 15.1009 17.504 14.6625 17.505ZM5.83336 3.67917H5.82919L4.16252 5.34917C4.23048 8.11471 5.33446 10.7539 7.25586 12.7442C9.24621 14.6649 11.8849 15.7688 14.65 15.8375L16.3225 14.1667L14.1625 12.0125L13.085 13.0892C12.9309 13.245 12.7209 13.3329 12.5017 13.3333C12.4432 13.3334 12.3848 13.3272 12.3275 13.315C10.9389 13.0078 9.64951 12.3571 8.57752 11.4225C7.6429 10.3505 6.9922 9.06114 6.68502 7.6725C6.62707 7.39647 6.71268 7.10986 6.91252 6.91083L7.98919 5.83333L5.83336 3.67917Z" fill="#303B40"/>
</svg>
